_Griffith_Gothic-Regular_WebTT.ufo
<glyph name="quotedbl" format="1">
  <advance width="737.28"/>
  <unicode hex="0022"/>
  <outline>
    <contour>
      <point x="104" y="1475" type="line"/>
      <point x="297" y="1475" type="line"/>
      <point x="252" y="1001" type="line"/>
      <point x="152" y="1001" type="line"/>
    </contour>
    <contour>
      <point x="440" y="1475" type="line"/>
      <point x="633" y="1475" type="line"/>
      <point x="586" y="1001" type="line"/>
      <point x="487" y="1001" type="line"/>
    </contour>
  </outline>
</glyph>
<glyph name="numbersign" format="1">
  <advance width="1269.76"/>
  <unicode hex="0023"/>
  <outline>
    <contour>
      <point x="1212" y="1083" type="line"/>
      <point x="1212" y="938" type="line"/>
      <point x="963" y="938" type="line"/>
      <point x="895" y="537" type="line"/>
      <point x="1143" y="537" type="line"/>
      <point x="1143" y="391" type="line"/>
      <point x="870" y="391" type="line"/>
      <point x="805" y="0" type="line"/>
      <point x="694" y="0" type="line"/>
      <point x="760" y="391" type="line"/>
      <point x="393" y="391" type="line"/>
      <point x="328" y="0" type="line"/>
      <point x="217" y="0" type="line"/>
      <point x="283" y="391" type="line"/>
      <point x="57" y="391" type="line"/>
      <point x="57" y="537" type="line"/>
      <point x="307" y="537" type="line"/>
      <point x="375" y="938" type="line"/>
      <point x="127" y="938" type="line"/>
      <point x="127" y="1083" type="line"/>
      <point x="399" y="1083" type="line"/>
      <point x="465" y="1475" type="line"/>
      <point x="575" y="1475" type="line"/>
      <point x="512" y="1083" type="line"/>
      <point x="877" y="1083" type="line"/>
      <point x="942" y="1475" type="line"/>
      <point x="1053" y="1475" type="line"/>
      <point x="987" y="1083" type="line"/>
    </contour>
    <contour>
      <point x="784" y="535" type="line"/>
      <point x="854" y="940" type="line"/>
      <point x="485" y="940" type="line"/>
      <point x="418" y="535" type="line"/>
    </contour>
  </outline>
</glyph>
<glyph name="dollar" format="1">
  <advance width="1140.736"/>
  <unicode hex="0024"/>
  <outline>
    <contour>
      <point x="623" y="825" type="line"/>
      <point x="870.014925373" y="744.402985075"/>
      <point x="1069.0" y="553.447761194"/>
      <point x="1069" y="393" type="qcurve" smooth="yes"/>
      <point x="1069.0" y="216.134328358"/>
      <point x="816.074626866" y="11.9402985075"/>
      <point x="631" y="0" type="qcurve"/>
      <point x="631" y="-195" type="line"/>
      <point x="516" y="-195" type="line"/>
      <point x="516" y="2" type="line"/>
      <point x="378.686567164" y="10.9552238806"/>
      <point x="148.313432836" y="114.701492537"/>
      <point x="61" y="205" type="qcurve"/>
      <point x="162" y="319" type="line"/>
      <point x="242.597014925" y="236.910447761"/>
      <point x="417.28358209" y="143.447761194"/>
      <point x="524" y="133" type="qcurve"/>
      <point x="524" y="700" type="line"/>
      <point x="310.567164179" y="767.910447761"/>
      <point x="106.0" y="952.537313433"/>
      <point x="106" y="1110" type="qcurve" smooth="yes"/>
      <point x="106.0" y="1267.46268657"/>
      <point x="335.402985075" y="1466.79104478"/>
      <point x="516" y="1475" type="qcurve"/>
      <point x="516" y="1561" type="line"/>
      <point x="631" y="1561" type="line"/>
      <point x="631" y="1473" type="line"/>
      <point x="748.164179104" y="1463.29850746"/>
      <point x="934.179104478" y="1377.34328358"/>
      <point x="1020" y="1296" type="qcurve"/>
      <point x="920" y="1182" type="line"/>
      <point x="852.089552239" y="1249.1641791"/>
      <point x="711.059701493" y="1329.05970149"/>
      <point x="623" y="1341" type="qcurve"/>
    </contour>
    <contour>
      <point x="270" y="1120" type="qcurve" smooth="yes"/>
      <point x="270.0" y="1026.71641791"/>
      <point x="392.656716418" y="905.253731343"/>
      <point x="524" y="856" type="qcurve"/>
      <point x="524" y="1343" type="line"/>
      <point x="400.119402985" y="1338.52238806"/>
      <point x="270.0" y="1217.76119403"/>
    </contour>
    <contour>
      <point x="623" y="129" type="line"/>
      <point x="754.343283582" y="137.955223881"/>
      <point x="905.0" y="268.074626866"/>
      <point x="905" y="383" type="qcurve" smooth="yes"/>
      <point x="905.0" y="480.76119403"/>
      <point x="786.432835821" y="610.298507463"/>
      <point x="623" y="670" type="qcurve"/>
    </contour>
  </outline>
</glyph>
<glyph name="ampersand" format="1">
  <advance width="1398.784"/>
  <unicode hex="0026"/>
  <outline>
    <contour>
      <point x="1399" y="141" type="qcurve"/>
      <point x="1399" y="4" type="line"/>
      <point x="1366.91044776" y="-3.46268656716"/>
      <point x="1310.05970149" y="-12.0"/>
      <point x="1272" y="-12" type="qcurve" smooth="yes"/>
      <point x="1177.2238806" y="-12.0"/>
      <point x="1027.28358209" y="55.7313432836"/>
      <point x="934" y="152" type="qcurve"/>
      <point x="845.194029851" y="69.1641791045"/>
      <point x="637.432835821" y="-20.0"/>
      <point x="524" y="-20" type="qcurve" smooth="yes"/>
      <point x="318.029850746" y="-20.0"/>
      <point x="61.0" y="208.940298507"/>
      <point x="61" y="397" type="qcurve" smooth="yes"/>
      <point x="61.0" y="533.567164179"/>
      <point x="211.223880597" y="751.253731343"/>
      <point x="406" y="852" type="qcurve"/>
      <point x="347.791044776" y="942.298507463"/>
      <point x="283.0" y="1106.65671642"/>
      <point x="283" y="1188" type="qcurve" smooth="yes"/>
      <point x="283.0" y="1322.32835821"/>
      <point x="468.23880597" y="1499.0"/>
      <point x="616" y="1499" type="qcurve" smooth="yes"/>
      <point x="760.029850746" y="1499.0"/>
      <point x="913.0" y="1320.41791045"/>
      <point x="913" y="1204" type="qcurve" smooth="yes"/>
      <point x="913.0" y="1086.8358209"/>
      <point x="757.044776119" y="903.865671642"/>
      <point x="616" y="827" type="qcurve"/>
      <point x="717.492537313" y="677.746268657"/>
      <point x="877.373134328" y="461.298507463"/>
      <point x="952" y="371" type="qcurve"/>
      <point x="1016.17910448" y="459.059701493"/>
      <point x="1125.44776119" y="684.641791045"/>
      <point x="1165" y="813" type="qcurve"/>
      <point x="1305" y="752" type="line"/>
      <point x="1254.25373134" y="607.970149254"/>
      <point x="1120.86567164" y="360.268656716"/>
      <point x="1044" y="264" type="qcurve"/>
      <point x="1122.35820896" y="178.925373134"/>
      <point x="1229.25373134" y="123.0"/>
      <point x="1280" y="123" type="qcurve" smooth="yes"/>
      <point x="1319.55223881" y="123.0"/>
      <point x="1371.3880597" y="132.044776119"/>
    </contour>
    <contour>
      <point x="543" y="113" type="qcurve" smooth="yes"/>
      <point x="625.089552239" y="113.0"/>
      <point x="776.835820896" y="186.328358209"/>
      <point x="844" y="252" type="qcurve"/>
      <point x="770.119402985" y="340.805970149"/>
      <point x="585.447761194" y="585.820895522"/>
      <point x="475" y="750" type="qcurve"/>
      <point x="346.641791045" y="677.611940299"/>
      <point x="240.0" y="515.76119403"/>
      <point x="240" y="418" type="qcurve" smooth="yes"/>
      <point x="240.0" y="289.641791045"/>
      <point x="407.925373134" y="113.0"/>
    </contour>
    <contour>
      <point x="543" y="920" type="qcurve"/>
      <point x="660.164179104" y="984.179104478"/>
      <point x="760.0" y="1120.89552239"/>
      <point x="760" y="1200" type="qcurve" smooth="yes"/>
      <point x="760.0" y="1278.35820896"/>
      <point x="684.388059701" y="1384.0"/>
      <point x="612" y="1384" type="qcurve" smooth="yes"/>
      <point x="525.432835821" y="1384.0"/>
      <point x="440.0" y="1273.6119403"/>
      <point x="440" y="1196" type="qcurve" smooth="yes"/>
      <point x="440.0" y="1131.82089552"/>
      <point x="492.253731343" y="996.119402985"/>
    </contour>
  </outline>
</glyph>
<glyph name="asterisk" format="1">
  <advance width="901.12"/>
  <unicode hex="002A"/>
  <outline>
    <contour>
      <point x="774" y="1307" type="line"/>
      <point x="827" y="1151" type="line"/>
      <point x="506" y="1098" type="line"/>
      <point x="741" y="868" type="line"/>
      <point x="606" y="768" type="line"/>
      <point x="451" y="1065" type="line"/>
      <point x="297" y="768" type="line"/>
      <point x="162" y="868" type="line"/>
      <point x="395" y="1098" type="line"/>
      <point x="74" y="1151" type="line"/>
      <point x="127" y="1309" type="line"/>
      <point x="418" y="1155" type="line"/>
      <point x="367" y="1475" type="line"/>
      <point x="535" y="1475" type="line"/>
      <point x="483" y="1155" type="line"/>
    </contour>
  </outline>
</glyph>
<glyph name="slash" format="1">
  <advance width="806.912"/>
  <unicode hex="002F"/>
  <outline>
    <contour>
      <point x="600" y="1505" type="line"/>
      <point x="774" y="1505" type="line"/>
      <point x="143" y="-195" type="line"/>
      <point x="-31" y="-195" type="line"/>
    </contour>
  </outline>
</glyph>
<glyph name="nine" format="1">
  <advance width="1163.264"/>
  <unicode hex="0039"/>
  <outline>
    <contour>
      <point x="573" y="1499" type="qcurve" smooth="yes"/>
      <point x="793.149253731" y="1499.0"/>
      <point x="1071.0" y="1230.1641791"/>
      <point x="1071" y="963" type="qcurve" smooth="yes"/>
      <point x="1071.0" y="712.253731343"/>
      <point x="821.134328358" y="204.47761194"/>
      <point x="598" y="0" type="qcurve"/>
      <point x="367" y="0" type="line"/>
      <point x="577.447761194" y="169.402985075"/>
      <point x="843.179104478" y="558.074626866"/>
      <point x="879" y="723" type="qcurve"/>
      <point x="866" y="723" type="line"/>
      <point x="797.343283582" y="641.656716418"/>
      <point x="625.373134328" y="547.0"/>
      <point x="500" y="547" type="qcurve" smooth="yes"/>
      <point x="316.417910448" y="547.0"/>
      <point x="61.0" y="789.343283582"/>
      <point x="61" y="1008" type="qcurve" smooth="yes"/>
      <point x="61.0" y="1231.13432836"/>
      <point x="355.089552239" y="1499.0"/>
    </contour>
    <contour>
      <point x="555" y="680" type="qcurve" smooth="yes"/>
      <point x="703.507462687" y="680.0"/>
      <point x="887.0" y="878.955223881"/>
      <point x="887" y="1020" type="qcurve" smooth="yes"/>
      <point x="887.0" y="1172.98507463"/>
      <point x="708.552238806" y="1366.0"/>
      <point x="569" y="1366" type="qcurve" smooth="yes"/>
      <point x="428.701492537" y="1366.0"/>
      <point x="246.0" y="1173.97014925"/>
      <point x="246" y="1018" type="qcurve" smooth="yes"/>
      <point x="246.0" y="865.014925373"/>
      <point x="410.970149254" y="680.0"/>
    </contour>
  </outline>
</glyph>
<glyph name="colon" format="1">
  <advance width="440.32"/>
  <unicode hex="003A"/>
  <outline>
    <contour>
      <point x="221" y="225" type="qcurve" smooth="yes"/>
      <point x="273.23880597" y="225.0"/>
      <point x="342.0" y="156.746268657"/>
      <point x="342" y="106" type="qcurve" smooth="yes"/>
      <point x="342.0" y="54.5074626866"/>
      <point x="273.23880597" y="-14.0"/>
      <point x="221" y="-14" type="qcurve" smooth="yes"/>
      <point x="169.507462687" y="-14.0"/>
      <point x="100.0" y="54.5074626866"/>
      <point x="100" y="106" type="qcurve" smooth="yes"/>
      <point x="100.0" y="156.746268657"/>
      <point x="169.507462687" y="225.0"/>
    </contour>
    <contour>
      <point x="221" y="1077" type="qcurve" smooth="yes"/>
      <point x="273.23880597" y="1077.0"/>
      <point x="342.0" y="1008.23880597"/>
      <point x="342" y="956" type="qcurve" smooth="yes"/>
      <point x="342.0" y="904.507462687"/>
      <point x="273.23880597" y="836.0"/>
      <point x="221" y="836" type="qcurve" smooth="yes"/>
      <point x="169.507462687" y="836.0"/>
      <point x="100.0" y="904.507462687"/>
      <point x="100" y="956" type="qcurve" smooth="yes"/>
      <point x="100.0" y="1008.23880597"/>
      <point x="169.507462687" y="1077.0"/>
    </contour>
  </outline>
</glyph>
<glyph name="less" format="1">
  <advance width="1228.8"/>
  <unicode hex="003C"/>
  <outline>
    <contour>
      <point x="1118" y="360" type="line"/>
      <point x="1118" y="195" type="line"/>
      <point x="96" y="649" type="line"/>
      <point x="96" y="805" type="line"/>
      <point x="1118" y="1260" type="line"/>
      <point x="1118" y="1094" type="line"/>
      <point x="272" y="727" type="line"/>
    </contour>
  </outline>
</glyph>
<glyph name="equal" format="1">
  <advance width="1228.8"/>
  <unicode hex="003D"/>
  <outline>
    <contour>
      <point x="1110" y="559" type="line"/>
      <point x="1110" y="397" type="line"/>
      <point x="119" y="397" type="line"/>
      <point x="119" y="559" type="line"/>
    </contour>
    <contour>
      <point x="1110" y="1057" type="line"/>
      <point x="1110" y="895" type="line"/>
      <point x="119" y="895" type="line"/>
      <point x="119" y="1057" type="line"/>
    </contour>
  </outline>
</glyph>
<glyph name="question" format="1">
  <advance width="933.888"/>
  <unicode hex="003F"/>
  <outline>
    <contour>
      <point x="469" y="1499" type="qcurve" smooth="yes"/>
      <point x="646.611940299" y="1499.0"/>
      <point x="848.0" y="1303.02985075"/>
      <point x="848" y="1159" type="qcurve" smooth="yes"/>
      <point x="848.0" y="1036.6119403"/>
      <point x="746.194029851" y="884.0"/>
      <point x="635" y="784" type="qcurve" smooth="yes"/>
      <point x="549.179104478" y="706.388059701"/>
      <point x="483.985074627" y="572.328358209"/>
      <point x="481" y="438" type="qcurve"/>
      <point x="365" y="438" type="line"/>
      <point x="356.791044776" y="612.626865672"/>
      <point x="417.253731343" y="783.71641791"/>
      <point x="518" y="877" type="qcurve" smooth="yes"/>
      <point x="594.865671642" y="948.641791045"/>
      <point x="664.0" y="1074.88059701"/>
      <point x="664" y="1151" type="qcurve" smooth="yes"/>
      <point x="664.0" y="1239.80597015"/>
      <point x="557.268656716" y="1356.0"/>
      <point x="461" y="1356" type="qcurve" smooth="yes"/>
      <point x="358.76119403" y="1356.0"/>
      <point x="230.23880597" y="1247.91044776"/>
      <point x="178" y="1130" type="qcurve"/>
      <point x="39" y="1194" type="line"/>
      <point x="98.7014925373" y="1337.28358209"/>
      <point x="301.089552239" y="1499.0"/>
    </contour>
    <contour>
      <point x="422" y="219" type="qcurve" smooth="yes"/>
      <point x="472.0" y="219.0"/>
      <point x="539.0" y="152.746268657"/>
      <point x="539" y="102" type="qcurve" smooth="yes"/>
      <point x="539.0" y="53.4925373134"/>
      <point x="472.0" y="-14.0"/>
      <point x="422" y="-14" type="qcurve" smooth="yes"/>
      <point x="372.746268657" y="-14.0"/>
      <point x="305.0" y="53.4925373134"/>
      <point x="305" y="102" type="qcurve" smooth="yes"/>
      <point x="305.0" y="152.746268657"/>
      <point x="372.746268657" y="219.0"/>
    </contour>
  </outline>
</glyph>
<glyph name="C" format="1">
  <advance width="1202.176"/>
  <unicode hex="0043"/>
  <outline>
    <contour>
      <point x="954" y="475" type="qcurve"/>
      <point x="1128" y="430" type="line"/>
      <point x="1083.97014925" y="225.52238806"/>
      <point x="844.462686567" y="-25.0"/>
      <point x="637" y="-25" type="qcurve" smooth="yes"/>
      <point x="390.731343284" y="-25.0"/>
      <point x="100.0" y="371.955223881"/>
      <point x="100" y="713" type="qcurve" smooth="yes"/>
      <point x="100" y="758" type="line" smooth="yes"/>
      <point x="100.0" y="1100.53731343"/>
      <point x="389.746268657" y="1499.0"/>
      <point x="639" y="1499" type="qcurve" smooth="yes"/>
      <point x="844.970149254" y="1499.0"/>
      <point x="1078.95522388" y="1261.02985075"/>
      <point x="1120" y="1067" type="qcurve"/>
      <point x="942" y="1020" type="line"/>
      <point x="905.432835821" y="1181.94029851"/>
      <point x="761.388059701" y="1352.0"/>
      <point x="639" y="1352" type="qcurve" smooth="yes"/>
      <point x="465.119402985" y="1352.0"/>
      <point x="297.0" y="1027.25373134"/>
      <point x="297" y="778" type="qcurve" smooth="yes"/>
      <point x="297" y="700" type="line" smooth="yes"/>
      <point x="297.0" y="450.0"/>
      <point x="465.626865672" y="123.0"/>
      <point x="641" y="123" type="qcurve" smooth="yes"/>
      <point x="770.850746269" y="123.0"/>
      <point x="918.925373134" y="311.567164179"/>
    </contour>
  </outline>
</glyph>
<glyph name="E" format="1">
  <advance width="1142.784"/>
  <unicode hex="0045"/>
  <outline>
    <contour>
      <point x="1067" y="150" type="line"/>
      <point x="1067" y="0" type="line"/>
      <point x="160" y="0" type="line"/>
      <point x="160" y="1475" type="line"/>
      <point x="1042" y="1475" type="line"/>
      <point x="1042" y="1325" type="line"/>
      <point x="348" y="1325" type="line"/>
      <point x="348" y="842" type="line"/>
      <point x="913" y="842" type="line"/>
      <point x="913" y="696" type="line"/>
      <point x="348" y="696" type="line"/>
      <point x="348" y="150" type="line"/>
    </contour>
  </outline>
</glyph>
<glyph name="F" format="1">
  <advance width="1079.296"/>
  <unicode hex="0046"/>
  <outline>
    <contour>
      <point x="1032" y="1475" type="line"/>
      <point x="1032" y="1325" type="line"/>
      <point x="350" y="1325" type="line"/>
      <point x="350" y="807" type="line"/>
      <point x="885" y="807" type="line"/>
      <point x="885" y="659" type="line"/>
      <point x="350" y="659" type="line"/>
      <point x="350" y="0" type="line"/>
      <point x="160" y="0" type="line"/>
      <point x="160" y="1475" type="line"/>
    </contour>
  </outline>
</glyph>
<glyph name="I" format="1">
  <advance width="817.152"/>
  <unicode hex="0049"/>
  <outline>
    <contour>
      <point x="713" y="90" type="line"/>
      <point x="713" y="0" type="line"/>
      <point x="104" y="0" type="line"/>
      <point x="104" y="90" type="line"/>
      <point x="313" y="90" type="line"/>
      <point x="313" y="1384" type="line"/>
      <point x="104" y="1384" type="line"/>
      <point x="104" y="1475" type="line"/>
      <point x="713" y="1475" type="line"/>
      <point x="713" y="1384" type="line"/>
      <point x="504" y="1384" type="line"/>
      <point x="504" y="90" type="line"/>
    </contour>
  </outline>
</glyph>
<glyph name="K" format="1">
  <advance width="1241.088"/>
  <unicode hex="004B"/>
  <outline>
    <contour>
      <point x="616" y="805" type="line"/>
      <point x="1245" y="0" type="line"/>
      <point x="1024" y="0" type="line"/>
      <point x="410" y="795" type="line"/>
      <point x="410" y="799" type="line"/>
      <point x="993" y="1475" type="line"/>
      <point x="1210" y="1475" type="line"/>
    </contour>
    <contour>
      <point x="350" y="1475" type="line"/>
      <point x="350" y="0" type="line"/>
      <point x="160" y="0" type="line"/>
      <point x="160" y="1475" type="line"/>
    </contour>
  </outline>
</glyph>
<glyph name="N" format="1">
  <advance width="1325.056"/>
  <unicode hex="004E"/>
  <outline>
    <contour>
      <point x="1165" y="1475" type="line"/>
      <point x="1165" y="0" type="line"/>
      <point x="954" y="0" type="line"/>
      <point x="350" y="1206" type="line"/>
      <point x="336" y="1206" type="line"/>
      <point x="336" y="0" type="line"/>
      <point x="160" y="0" type="line"/>
      <point x="160" y="1475" type="line"/>
      <point x="387" y="1475" type="line"/>
      <point x="973" y="301" type="line"/>
      <point x="987" y="301" type="line"/>
      <point x="987" y="1475" type="line"/>
    </contour>
  </outline>
</glyph>
<glyph name="O" format="1">
  <advance width="1277.952"/>
  <unicode hex="004F"/>
  <outline>
    <contour>
      <point x="1178" y="762" type="qcurve" smooth="yes"/>
      <point x="1178" y="717" type="line" smooth="yes"/>
      <point x="1178.0" y="374.462686567"/>
      <point x="889.746268657" y="-25.0"/>
      <point x="639" y="-25" type="qcurve" smooth="yes"/>
      <point x="389.746268657" y="-25.0"/>
      <point x="100.0" y="371.955223881"/>
      <point x="100" y="713" type="qcurve" smooth="yes"/>
      <point x="100" y="758" type="line" smooth="yes"/>
      <point x="100.0" y="1100.53731343"/>
      <point x="389.746268657" y="1499.0"/>
      <point x="639" y="1499" type="qcurve" smooth="yes"/>
      <point x="889.746268657" y="1499.0"/>
      <point x="1178.0" y="1103.04477612"/>
    </contour>
    <contour>
      <point x="639" y="123" type="qcurve" smooth="yes"/>
      <point x="811.388059701" y="123.0"/>
      <point x="981.0" y="442.268656716"/>
      <point x="981" y="696" type="qcurve" smooth="yes"/>
      <point x="981" y="774" type="line" smooth="yes"/>
      <point x="981.0" y="1027.73134328"/>
      <point x="811.388059701" y="1352.0"/>
      <point x="639" y="1352" type="qcurve" smooth="yes"/>
      <point x="466.611940299" y="1352.0"/>
      <point x="297.0" y="1030.23880597"/>
      <point x="297" y="778" type="qcurve" smooth="yes"/>
      <point x="297" y="700" type="line" smooth="yes"/>
      <point x="297.0" y="444.776119403"/>
      <point x="466.611940299" y="123.0"/>
    </contour>
  </outline>
</glyph>
<glyph name="P" format="1">
  <advance width="1179.648"/>
  <unicode hex="0050"/>
  <outline>
    <contour>
      <point x="612" y="1475" type="line" smooth="yes"/>
      <point x="843.343283582" y="1475.0"/>
      <point x="1108.0" y="1257.95522388"/>
      <point x="1108" y="1049" type="qcurve" smooth="yes"/>
      <point x="1108.0" y="837.805970149"/>
      <point x="843.28358209" y="610.0"/>
      <point x="600" y="610" type="qcurve" smooth="yes"/>
      <point x="350" y="610" type="line"/>
      <point x="350" y="0" type="line"/>
      <point x="160" y="0" type="line"/>
      <point x="160" y="1475" type="line"/>
    </contour>
    <contour>
      <point x="600" y="756" type="line" smooth="yes"/>
      <point x="751.492537313" y="756.0"/>
      <point x="918.0" y="902.208955224"/>
      <point x="918" y="1044" type="qcurve" smooth="yes"/>
      <point x="918.0" y="1183.55223881"/>
      <point x="752.955223881" y="1333.0"/>
      <point x="594" y="1333" type="qcurve" smooth="yes"/>
      <point x="344" y="1333" type="line"/>
      <point x="344" y="756" type="line"/>
    </contour>
  </outline>
</glyph>
<glyph name="S" format="1">
  <advance width="1173.504"/>
  <unicode hex="0053"/>
  <outline>
    <contour>
      <point x="639" y="842" type="qcurve" smooth="yes"/>
      <point x="892.731343284" y="760.656716418"/>
      <point x="1083.0" y="553.417910448"/>
      <point x="1083" y="387" type="qcurve" smooth="yes"/>
      <point x="1083.0" y="185.507462687"/>
      <point x="801.492537313" y="-23.0"/>
      <point x="600" y="-23" type="qcurve" smooth="yes"/>
      <point x="404.47761194" y="-23.0"/>
      <point x="146.656716418" y="138.044776119"/>
      <point x="78" y="297" type="qcurve"/>
      <point x="211" y="395" type="line"/>
      <point x="269.208955224" y="257.686567164"/>
      <point x="471.164179104" y="123.0"/>
      <point x="604" y="123" type="qcurve" smooth="yes"/>
      <point x="733.850746269" y="123.0"/>
      <point x="907.0" y="251.089552239"/>
      <point x="907" y="369" type="qcurve" smooth="yes"/>
      <point x="907.0" y="475.71641791"/>
      <point x="766.701492537" y="610.328358209"/>
      <point x="557" y="676" type="qcurve" smooth="yes"/>
      <point x="315.208955224" y="750.626865672"/>
      <point x="123.0" y="953.074626866"/>
      <point x="123" y="1118" type="qcurve" smooth="yes"/>
      <point x="123.0" y="1278.44776119"/>
      <point x="363.507462687" y="1497.0"/>
      <point x="565" y="1497" type="qcurve" smooth="yes"/>
      <point x="728.432835821" y="1497.0"/>
      <point x="964.835820896" y="1362.82089552"/>
      <point x="1032" y="1227" type="qcurve"/>
      <point x="901" y="1126" type="line"/>
      <point x="842.791044776" y="1231.97014925"/>
      <point x="682.402985075" y="1352.0"/>
      <point x="563" y="1352" type="qcurve" smooth="yes"/>
      <point x="433.149253731" y="1352.0"/>
      <point x="301.0" y="1220.58208955"/>
      <point x="301" y="1137" type="qcurve" smooth="yes"/>
      <point x="301.0" y="1034.01492537"/>
      <point x="441.985074627" y="904.686567164"/>
    </contour>
  </outline>
</glyph>
<glyph name="T" format="1">
  <advance width="1165.312"/>
  <unicode hex="0054"/>
  <outline>
    <contour>
      <point x="1126" y="1475" type="line"/>
      <point x="1126" y="1317" type="line"/>
      <point x="678" y="1317" type="line"/>
      <point x="678" y="0" type="line"/>
      <point x="487" y="0" type="line"/>
      <point x="487" y="1317" type="line"/>
      <point x="39" y="1317" type="line"/>
      <point x="39" y="1475" type="line"/>
    </contour>
  </outline>
</glyph>
<glyph name="W" format="1">
  <advance width="1978.368"/>
  <unicode hex="0057"/>
  <outline>
    <contour>
      <point x="1714" y="1475" type="line"/>
      <point x="1907" y="1475" type="line"/>
      <point x="1520" y="-10" type="line"/>
      <point x="1307" y="-10" type="line"/>
      <point x="989" y="1243" type="line"/>
      <point x="973" y="1243" type="line"/>
      <point x="657" y="-10" type="line"/>
      <point x="444" y="-10" type="line"/>
      <point x="57" y="1475" type="line"/>
      <point x="256" y="1475" type="line"/>
      <point x="553" y="211" type="line"/>
      <point x="567" y="211" type="line"/>
      <point x="872" y="1475" type="line"/>
      <point x="1096" y="1475" type="line"/>
      <point x="1405" y="211" type="line"/>
      <point x="1419" y="211" type="line"/>
    </contour>
  </outline>
</glyph>
<glyph name="X" format="1">
  <advance width="1296.384"/>
  <unicode hex="0058"/>
  <outline>
    <contour>
      <point x="748" y="770" type="line"/>
      <point x="1243" y="0" type="line"/>
      <point x="1028" y="0" type="line"/>
      <point x="641" y="610" type="line"/>
      <point x="246" y="0" type="line"/>
      <point x="53" y="0" type="line"/>
      <point x="547" y="750" type="line"/>
      <point x="84" y="1475" type="line"/>
      <point x="297" y="1475" type="line"/>
      <point x="657" y="909" type="line"/>
      <point x="1020" y="1475" type="line"/>
      <point x="1212" y="1475" type="line"/>
    </contour>
  </outline>
</glyph>
<glyph name="Y" format="1">
  <advance width="1275.904"/>
  <unicode hex="0059"/>
  <outline>
    <contour>
      <point x="1053" y="1475" type="line"/>
      <point x="1245" y="1475" type="line"/>
      <point x="733" y="573" type="line"/>
      <point x="733" y="0" type="line"/>
      <point x="541" y="0" type="line"/>
      <point x="541" y="569" type="line"/>
      <point x="31" y="1475" type="line"/>
      <point x="238" y="1475" type="line"/>
      <point x="645" y="735" type="line"/>
    </contour>
  </outline>
</glyph>
<glyph name="asciicircum" format="1">
  <advance width="1126.4"/>
  <unicode hex="005E"/>
  <outline>
    <contour>
      <point x="651" y="1485" type="line"/>
      <point x="1032" y="834" type="line"/>
      <point x="909" y="834" type="line"/>
      <point x="563" y="1321" type="line"/>
      <point x="217" y="834" type="line"/>
      <point x="94" y="834" type="line"/>
      <point x="475" y="1485" type="line"/>
    </contour>
  </outline>
</glyph>
<glyph name="grave" format="1">
  <advance width="1024.0"/>
  <unicode hex="0060"/>
  <outline>
    <contour>
      <point x="510" y="1522" type="line"/>
      <point x="690" y="1212" type="line"/>
      <point x="571" y="1212" type="line"/>
      <point x="285" y="1522" type="line"/>
    </contour>
  </outline>
</glyph>
<glyph name="a" format="1">
  <advance width="1015.808"/>
  <unicode hex="0061"/>
  <outline>
    <contour>
      <point x="975" y="72" type="qcurve"/>
      <point x="975" y="-8" type="line"/>
      <point x="854.104477612" y="-8.0"/>
      <point x="712.179104478" y="90.1492537313"/>
      <point x="698" y="170" type="qcurve"/>
      <point x="686" y="170" type="line"/>
      <point x="609.880597015" y="75.223880597"/>
      <point x="444.776119403" y="-14.0"/>
      <point x="350" y="-14" type="qcurve" smooth="yes"/>
      <point x="232.835820896" y="-14.0"/>
      <point x="59.0" y="130.686567164"/>
      <point x="59" y="268" type="qcurve" smooth="yes"/>
      <point x="59.0" y="429.940298507"/>
      <point x="379.074626866" y="628.014925373"/>
      <point x="694" y="631" type="qcurve"/>
      <point x="694" y="745" type="line" smooth="yes"/>
      <point x="694.0" y="850.970149254"/>
      <point x="604.805970149" y="950.0"/>
      <point x="516" y="950" type="qcurve" smooth="yes"/>
      <point x="438.388059701" y="950.0"/>
      <point x="285.537313433" y="897.492537313"/>
      <point x="193" y="846" type="qcurve"/>
      <point x="141" y="961" type="line"/>
      <point x="234.28358209" y="1011.0"/>
      <point x="427.597014925" y="1077.0"/>
      <point x="547" y="1077" type="qcurve" smooth="yes"/>
      <point x="711.925373134" y="1077.0"/>
      <point x="862.0" y="921.402985075"/>
      <point x="862" y="752" type="qcurve" smooth="yes"/>
      <point x="862" y="215" type="line" smooth="yes"/>
      <point x="862.0" y="149.328358209"/>
      <point x="915.298507463" y="77.9701492537"/>
    </contour>
    <contour>
      <point x="414" y="100" type="qcurve" smooth="yes"/>
      <point x="490.119402985" y="100.0"/>
      <point x="634.298507463" y="179.402985075"/>
      <point x="694" y="260" type="qcurve"/>
      <point x="694" y="547" type="line"/>
      <point x="441.76119403" y="547.0"/>
      <point x="227.0" y="392.223880597"/>
      <point x="227" y="287" type="qcurve" smooth="yes"/>
      <point x="227.0" y="198.194029851"/>
      <point x="332.656716418" y="100.0"/>
    </contour>
  </outline>
</glyph>
<glyph name="c" format="1">
  <advance width="933.888"/>
  <unicode hex="0063"/>
  <outline>
    <contour>
      <point x="727" y="307" type="qcurve"/>
      <point x="877" y="266" type="line"/>
      <point x="830.731343284" y="128.686567164"/>
      <point x="642.298507463" y="-20.0"/>
      <point x="502" y="-20" type="qcurve" smooth="yes"/>
      <point x="309.462686567" y="-20.0"/>
      <point x="80.0" y="275.970149254"/>
      <point x="80" y="520" type="qcurve" smooth="yes"/>
      <point x="80" y="543" type="line" smooth="yes"/>
      <point x="80.0" y="784.044776119"/>
      <point x="312.985074627" y="1087.0"/>
      <point x="510" y="1087" type="qcurve" smooth="yes"/>
      <point x="651.791044776" y="1087.0"/>
      <point x="827.462686567" y="940.820895522"/>
      <point x="870" y="805" type="qcurve"/>
      <point x="717" y="764" type="line"/>
      <point x="684.910447761" y="861.76119403"/>
      <point x="589.582089552" y="963.0"/>
      <point x="506" y="963" type="qcurve" smooth="yes"/>
      <point x="388.089552239" y="963.0"/>
      <point x="258.0" y="736.52238806"/>
      <point x="258" y="541" type="qcurve" smooth="yes"/>
      <point x="258" y="528" type="line" smooth="yes"/>
      <point x="258.0" y="330.985074627"/>
      <point x="388.597014925" y="102.0"/>
      <point x="508" y="102" type="qcurve" smooth="yes"/>
      <point x="587.104477612" y="102.0"/>
      <point x="688.940298507" y="203.268656716"/>
    </contour>
  </outline>
</glyph>
<glyph name="e" format="1">
  <advance width="962.56"/>
  <unicode hex="0065"/>
  <outline>
    <contour>
      <point x="879" y="119" type="line"/>
      <point x="800.641791045" y="54.8208955224"/>
      <point x="628.925373134" y="-18.0"/>
      <point x="514" y="-18" type="qcurve" smooth="yes"/>
      <point x="319.970149254" y="-18.0"/>
      <point x="80.0" y="265.791044776"/>
      <point x="80" y="524" type="qcurve" smooth="yes"/>
      <point x="80" y="543" type="line" smooth="yes"/>
      <point x="80.0" y="784.044776119"/>
      <point x="307.656716418" y="1087.0"/>
      <point x="489" y="1087" type="qcurve" smooth="yes"/>
      <point x="672.582089552" y="1087.0"/>
      <point x="883.0" y="787.507462687"/>
      <point x="883" y="539" type="qcurve" smooth="yes"/>
      <point x="883" y="496" type="line"/>
      <point x="250" y="496" type="line"/>
      <point x="254.47761194" y="301.970149254"/>
      <point x="410.134328358" y="109.0"/>
      <point x="537" y="109" type="qcurve" smooth="yes"/>
      <point x="614.611940299" y="109.0"/>
      <point x="750.343283582" y="169.029850746"/>
      <point x="819" y="225" type="qcurve"/>
    </contour>
    <contour>
      <point x="489" y="973" type="qcurve" smooth="yes"/>
      <point x="380.791044776" y="973.0"/>
      <point x="257.462686567" y="769.343283582"/>
      <point x="250" y="588" type="qcurve"/>
      <point x="713" y="588" type="line"/>
      <point x="703.298507463" y="779.044776119"/>
      <point x="594.970149254" y="973.0"/>
    </contour>
  </outline>
</glyph>
<glyph name="f" format="1">
  <advance width="696.32"/>
  <unicode hex="0066"/>
  <outline>
    <contour>
      <point x="733" y="1526" type="qcurve"/>
      <point x="733" y="1391" type="line"/>
      <point x="697.925373134" y="1408.91044776"/>
      <point x="615.71641791" y="1430.0"/>
      <point x="559" y="1430" type="qcurve" smooth="yes"/>
      <point x="490.343283582" y="1430.0"/>
      <point x="418.0" y="1347.07462687"/>
      <point x="418" y="1262" type="qcurve" smooth="yes"/>
      <point x="418" y="1059" type="line"/>
      <point x="680" y="1059" type="line"/>
      <point x="680" y="932" type="line"/>
      <point x="418" y="932" type="line"/>
      <point x="418" y="0" type="line"/>
      <point x="240" y="0" type="line"/>
      <point x="240" y="932" type="line"/>
      <point x="33" y="932" type="line"/>
      <point x="33" y="1059" type="line"/>
      <point x="240" y="1059" type="line"/>
      <point x="240" y="1255" type="line" smooth="yes"/>
      <point x="240.0" y="1403.50746269"/>
      <point x="396.179104478" y="1554.0"/>
      <point x="532" y="1554" type="qcurve" smooth="yes"/>
      <point x="601.402985075" y="1554.0"/>
      <point x="691.955223881" y="1539.43283582"/>
    </contour>
  </outline>
</glyph>
<glyph name="k" format="1">
  <advance width="983.04"/>
  <unicode hex="006B"/>
  <outline>
    <contour>
      <point x="532" y="543" type="line"/>
      <point x="973" y="0" type="line"/>
      <point x="772" y="0" type="line"/>
      <point x="348" y="535" type="line"/>
      <point x="348" y="541" type="line"/>
      <point x="762" y="1067" type="line"/>
      <point x="956" y="1067" type="line"/>
    </contour>
    <contour>
      <point x="311" y="1556" type="line"/>
      <point x="311" y="0" type="line"/>
      <point x="133" y="0" type="line"/>
      <point x="133" y="1509" type="line"/>
    </contour>
  </outline>
</glyph>
<glyph name="m" format="1">
  <advance width="1615.872"/>
  <unicode hex="006D"/>
  <outline>
    <contour>
      <point x="1493" y="827" type="qcurve" smooth="yes"/>
      <point x="1493" y="0" type="line"/>
      <point x="1313" y="0" type="line"/>
      <point x="1313" y="788" type="line" smooth="yes"/>
      <point x="1313.0" y="866.358208955"/>
      <point x="1248.17910448" y="948.0"/>
      <point x="1184" y="948" type="qcurve" smooth="yes"/>
      <point x="1116.8358209" y="948.0"/>
      <point x="971.149253731" y="831.71641791"/>
      <point x="901" y="725" type="qcurve"/>
      <point x="901" y="0" type="line"/>
      <point x="723" y="0" type="line"/>
      <point x="723" y="788" type="line" smooth="yes"/>
      <point x="723.0" y="866.358208955"/>
      <point x="657.671641791" y="948.0"/>
      <point x="592" y="948" type="qcurve" smooth="yes"/>
      <point x="526.328358209" y="948.0"/>
      <point x="381.895522388" y="831.71641791"/>
      <point x="311" y="725" type="qcurve"/>
      <point x="311" y="0" type="line"/>
      <point x="133" y="0" type="line"/>
      <point x="133" y="1038" type="line"/>
      <point x="311" y="1085" type="line"/>
      <point x="311" y="821" type="line"/>
      <point x="324" y="821" type="line"/>
      <point x="407.582089552" y="938.910447761"/>
      <point x="578.776119403" y="1077.0"/>
      <point x="684" y="1077" type="qcurve" smooth="yes"/>
      <point x="789.223880597" y="1077.0"/>
      <point x="901.0" y="953.253731343"/>
      <point x="901" y="854" type="qcurve" smooth="yes"/>
      <point x="901" y="821" type="line"/>
      <point x="913" y="821" type="line"/>
      <point x="997.328358209" y="938.910447761"/>
      <point x="1166.53731343" y="1077.0"/>
      <point x="1274" y="1077" type="qcurve" smooth="yes"/>
      <point x="1383.70149254" y="1077.0"/>
      <point x="1493.0" y="941.925373134"/>
    </contour>
  </outline>
</glyph>
<glyph name="q" format="1">
  <advance width="1069.056"/>
  <unicode hex="0071"/>
  <outline>
    <contour>
      <point x="934" y="1038" type="line"/>
      <point x="934" y="-385" type="line"/>
      <point x="756" y="-385" type="line"/>
      <point x="756" y="223" type="line"/>
      <point x="745" y="223" type="line"/>
      <point x="683.059701493" y="111.805970149"/>
      <point x="540.447761194" y="-18.0"/>
      <point x="430" y="-18" type="qcurve" smooth="yes"/>
      <point x="280.0" y="-18.0"/>
      <point x="82.0" y="255.820895522"/>
      <point x="82" y="520" type="qcurve" smooth="yes"/>
      <point x="82" y="543" type="line" smooth="yes"/>
      <point x="82.0" y="805.686567164"/>
      <point x="292.208955224" y="1085.0"/>
      <point x="434" y="1085" type="qcurve" smooth="yes"/>
      <point x="541.462686567" y="1085.0"/>
      <point x="689.029850746" y="955.701492537"/>
      <point x="745" y="846" type="qcurve"/>
      <point x="756" y="846" type="line"/>
      <point x="756" y="1085" type="line"/>
    </contour>
    <contour>
      <point x="498" y="104" type="qcurve" smooth="yes"/>
      <point x="609.194029851" y="104.0"/>
      <point x="760.0" y="355.895522388"/>
      <point x="760" y="535" type="qcurve" smooth="yes"/>
      <point x="760.0" y="711.865671642"/>
      <point x="608.686567164" y="963.0"/>
      <point x="496" y="963" type="qcurve" smooth="yes"/>
      <point x="399.731343284" y="963.0"/>
      <point x="258.0" y="755.895522388"/>
      <point x="258" y="535" type="qcurve" smooth="yes"/>
      <point x="258.0" y="303.656716418"/>
      <point x="403.223880597" y="104.0"/>
    </contour>
  </outline>
</glyph>
<glyph name="t" format="1">
  <advance width="759.808"/>
  <unicode hex="0074"/>
  <outline>
    <contour>
      <point x="719" y="190" type="qcurve"/>
      <point x="719" y="51" type="line"/>
      <point x="653.328358209" y="14.4328358209"/>
      <point x="529.656716418" y="-20.0"/>
      <point x="461" y="-20" type="qcurve" smooth="yes"/>
      <point x="353.537313433" y="-20.0"/>
      <point x="225.0" y="86.6119402985"/>
      <point x="225" y="209" type="qcurve" smooth="yes"/>
      <point x="225" y="932" type="line"/>
      <point x="33" y="932" type="line"/>
      <point x="33" y="1059" type="line"/>
      <point x="225" y="1059" type="line"/>
      <point x="225" y="1405" type="line"/>
      <point x="401" y="1495" type="line"/>
      <point x="401" y="1059" type="line"/>
      <point x="672" y="1059" type="line"/>
      <point x="672" y="932" type="line"/>
      <point x="401" y="932" type="line"/>
      <point x="401" y="244" type="line" smooth="yes"/>
      <point x="401.0" y="179.820895522"/>
      <point x="465.492537313" y="119.0"/>
      <point x="514" y="119" type="qcurve" smooth="yes"/>
      <point x="556.537313433" y="119.0"/>
      <point x="653.328358209" y="151.940298507"/>
    </contour>
  </outline>
</glyph>
<glyph name="w" format="1">
  <advance width="1576.96"/>
  <unicode hex="0077"/>
  <outline>
    <contour>
      <point x="1352" y="1067" type="line"/>
      <point x="1526" y="1067" type="line"/>
      <point x="1204" y="-8" type="line"/>
      <point x="1022" y="-8" type="line"/>
      <point x="791" y="848" type="line"/>
      <point x="559" y="-8" type="line"/>
      <point x="373" y="-8" type="line"/>
      <point x="51" y="1067" type="line"/>
      <point x="236" y="1067" type="line"/>
      <point x="473" y="184" type="line"/>
      <point x="707" y="1067" type="line"/>
      <point x="881" y="1067" type="line"/>
      <point x="1114" y="184" type="line"/>
    </contour>
  </outline>
</glyph>
<glyph name="x" format="1">
  <advance width="999.424"/>
  <unicode hex="0078"/>
  <outline>
    <contour>
      <point x="592" y="549" type="line"/>
      <point x="948" y="0" type="line"/>
      <point x="754" y="0" type="line"/>
      <point x="494" y="420" type="line"/>
      <point x="231" y="0" type="line"/>
      <point x="53" y="0" type="line"/>
      <point x="408" y="537" type="line"/>
      <point x="63" y="1067" type="line"/>
      <point x="258" y="1067" type="line"/>
      <point x="506" y="662" type="line"/>
      <point x="756" y="1067" type="line"/>
      <point x="936" y="1067" type="line"/>
    </contour>
  </outline>
</glyph>
<glyph name="y" format="1">
  <advance width="983.04"/>
  <unicode hex="0079"/>
  <outline>
    <contour>
      <point x="762" y="1067" type="line"/>
      <point x="936" y="1067" type="line"/>
      <point x="551" y="-123" type="line" smooth="yes"/>
      <point x="501.746268657" y="-275.985074627"/>
      <point x="348.402985075" y="-393.0"/>
      <point x="229" y="-393" type="qcurve" smooth="yes"/>
      <point x="173.029850746" y="-393.0"/>
      <point x="89.0597014925" y="-373.164179104"/>
      <point x="51" y="-356" type="qcurve"/>
      <point x="51" y="-225" type="line"/>
      <point x="98" y="-225" type="line"/>
      <point x="118.149253731" y="-257.089552239"/>
      <point x="171.985074627" y="-291.0"/>
      <point x="219" y="-291" type="qcurve" smooth="yes"/>
      <point x="275.71641791" y="-291.0"/>
      <point x="354.880597015" y="-218.373134328"/>
      <point x="381" y="-143" type="qcurve" smooth="yes"/>
      <point x="414" y="-47" type="line"/>
      <point x="47" y="1067" type="line"/>
      <point x="231" y="1067" type="line"/>
      <point x="496" y="168" type="line"/>
    </contour>
  </outline>
</glyph>
<glyph name="asciitilde" format="1">
  <advance width="804.864"/>
  <unicode hex="007E"/>
  <outline>
    <contour>
      <point x="629" y="698" type="qcurve"/>
      <point x="727" y="698" type="line"/>
      <point x="728.492537313" y="574.119402985"/>
      <point x="644.313432836" y="457.0"/>
      <point x="557" y="457" type="qcurve" smooth="yes"/>
      <point x="469.686567164" y="457.0"/>
      <point x="316.208955224" y="569.0"/>
      <point x="258" y="569" type="qcurve" smooth="yes"/>
      <point x="215.462686567" y="569.0"/>
      <point x="176.0" y="517.71641791"/>
      <point x="176" y="461" type="qcurve"/>
      <point x="78" y="461" type="line"/>
      <point x="76.5074626866" y="584.880597015"/>
      <point x="160.686567164" y="702.0"/>
      <point x="248" y="702" type="qcurve" smooth="yes"/>
      <point x="336.805970149" y="702.0"/>
      <point x="490.791044776" y="588.0"/>
      <point x="549" y="588" type="qcurve" smooth="yes"/>
      <point x="590.044776119" y="588.0"/>
      <point x="629.0" y="640.537313433"/>
    </contour>
  </outline>
</glyph>
<glyph name="exclamdown" format="1">
  <advance width="516.096"/>
  <unicode hex="00A1"/>
  <outline>
    <contour>
      <point x="258" y="1489" type="qcurve" smooth="yes"/>
      <point x="307.253731343" y="1489.0"/>
      <point x="373.0" y="1421.25373134"/>
      <point x="373" y="1372" type="qcurve" smooth="yes"/>
      <point x="373.0" y="1323.49253731"/>
      <point x="307.253731343" y="1257.0"/>
      <point x="258" y="1257" type="qcurve" smooth="yes"/>
      <point x="209.492537313" y="1257.0"/>
      <point x="141.0" y="1323.49253731"/>
      <point x="141" y="1372" type="qcurve" smooth="yes"/>
      <point x="141.0" y="1421.25373134"/>
      <point x="209.492537313" y="1489.0"/>
    </contour>
    <contour>
      <point x="307" y="1036" type="line"/>
      <point x="369" y="0" type="line"/>
      <point x="147" y="0" type="line"/>
      <point x="209" y="1036" type="line"/>
    </contour>
  </outline>
</glyph>
<glyph name="cent" format="1">
  <advance width="962.56"/>
  <unicode hex="00A2"/>
  <outline>
    <contour>
      <point x="270" y="-195" type="line"/>
      <point x="158" y="-195" type="line"/>
      <point x="266" y="55" type="line"/>
      <point x="177.194029851" y="120.671641791"/>
      <point x="80.0" y="362.537313433"/>
      <point x="80" y="520" type="qcurve" smooth="yes"/>
      <point x="80" y="543" type="line" smooth="yes"/>
      <point x="80.0" y="784.044776119"/>
      <point x="312.985074627" y="1087.0"/>
      <point x="510" y="1087" type="qcurve" smooth="yes"/>
      <point x="558.507462687" y="1087.0"/>
      <point x="644.925373134" y="1068.40298507"/>
      <point x="680" y="1049" type="qcurve"/>
      <point x="766" y="1262" type="line"/>
      <point x="877" y="1262" type="line"/>
      <point x="410" y="125" type="line"/>
      <point x="430.895522388" y="110.820895522"/>
      <point x="480.388059701" y="98.0"/>
      <point x="508" y="98" type="qcurve" smooth="yes"/>
      <point x="587.104477612" y="98.0"/>
      <point x="696.940298507" y="200.28358209"/>
      <point x="735" y="307" type="qcurve"/>
      <point x="877" y="266" type="line"/>
      <point x="830.731343284" y="128.686567164"/>
      <point x="642.298507463" y="-20.0"/>
      <point x="502" y="-20" type="qcurve" smooth="yes"/>
      <point x="462.447761194" y="-20.0"/>
      <point x="387.582089552" y="-6.92537313433"/>
      <point x="354" y="8" type="qcurve"/>
    </contour>
    <contour>
      <point x="248" y="528" type="line" smooth="yes"/>
      <point x="248.0" y="421.28358209"/>
      <point x="300.985074627" y="249.985074627"/>
      <point x="348" y="197" type="qcurve"/>
      <point x="631" y="934" type="line"/>
      <point x="606.373134328" y="948.925373134"/>
      <point x="544.567164179" y="967.0"/>
      <point x="508" y="967" type="qcurve" smooth="yes"/>
      <point x="388.597014925" y="967.0"/>
      <point x="248.0" y="739.507462687"/>
      <point x="248" y="541" type="qcurve" smooth="yes"/>
    </contour>
  </outline>
</glyph>
<glyph name="yen" format="1">
  <advance width="1265.664"/>
  <unicode hex="00A5"/>
  <outline>
    <contour>
      <point x="1034" y="1475" type="line"/>
      <point x="1225" y="1475" type="line"/>
      <point x="844" y="795" type="line"/>
      <point x="1126" y="795" type="line"/>
      <point x="1126" y="688" type="line"/>
      <point x="786" y="688" type="line"/>
      <point x="723" y="573" type="line"/>
      <point x="723" y="416" type="line"/>
      <point x="1126" y="416" type="line"/>
      <point x="1126" y="307" type="line"/>
      <point x="723" y="307" type="line"/>
      <point x="723" y="0" type="line"/>
      <point x="543" y="0" type="line"/>
      <point x="543" y="307" type="line"/>
      <point x="137" y="307" type="line"/>
      <point x="137" y="416" type="line"/>
      <point x="543" y="416" type="line"/>
      <point x="543" y="569" type="line"/>
      <point x="477" y="688" type="line"/>
      <point x="137" y="688" type="line"/>
      <point x="137" y="795" type="line"/>
      <point x="420" y="795" type="line"/>
      <point x="39" y="1475" type="line"/>
      <point x="244" y="1475" type="line"/>
      <point x="639" y="717" type="line"/>
    </contour>
  </outline>
</glyph>
<glyph name="dieresis" format="1">
  <advance width="1024.0"/>
  <unicode hex="00A8"/>
  <outline>
    <contour>
      <point x="412" y="1411" type="line"/>
      <point x="412" y="1212" type="line"/>
      <point x="238" y="1212" type="line"/>
      <point x="238" y="1411" type="line"/>
    </contour>
    <contour>
      <point x="786" y="1411" type="line"/>
      <point x="786" y="1212" type="line"/>
      <point x="612" y="1212" type="line"/>
      <point x="612" y="1411" type="line"/>
    </contour>
  </outline>
</glyph>
<glyph name="degree" format="1">
  <advance width="819.2"/>
  <unicode hex="00B0"/>
  <outline>
    <contour>
      <point x="410" y="1483" type="qcurve" smooth="yes"/>
      <point x="542.835820896" y="1483.0"/>
      <point x="719.0" y="1310.8358209"/>
      <point x="719" y="1178" type="qcurve" smooth="yes"/>
      <point x="719.0" y="1045.91044776"/>
      <point x="542.835820896" y="874.0"/>
      <point x="410" y="874" type="qcurve" smooth="yes"/>
      <point x="276.417910448" y="874.0"/>
      <point x="100.0" y="1045.91044776"/>
      <point x="100" y="1178" type="qcurve" smooth="yes"/>
      <point x="100.0" y="1310.8358209"/>
      <point x="276.417910448" y="1483.0"/>
    </contour>
    <contour>
      <point x="410" y="971" type="qcurve" smooth="yes"/>
      <point x="496.567164179" y="971.0"/>
      <point x="608.0" y="1087.70149254"/>
      <point x="608" y="1178" type="qcurve" smooth="yes"/>
      <point x="608.0" y="1267.55223881"/>
      <point x="496.567164179" y="1386.0"/>
      <point x="410" y="1386" type="qcurve" smooth="yes"/>
      <point x="322.686567164" y="1386.0"/>
      <point x="211.0" y="1267.55223881"/>
      <point x="211" y="1178" type="qcurve" smooth="yes"/>
      <point x="211.0" y="1087.70149254"/>
      <point x="322.686567164" y="971.0"/>
    </contour>
  </outline>
</glyph>
<glyph name="cedilla" format="1">
  <advance width="1024.0"/>
  <unicode hex="00B8"/>
  <outline>
    <contour>
      <point x="623" y="-90" type="qcurve" smooth="yes"/>
      <point x="690.164179104" y="-90.0"/>
      <point x="774.0" y="-148.791044776"/>
      <point x="774" y="-207" type="qcurve" smooth="yes"/>
      <point x="774.0" y="-303.268656716"/>
      <point x="545.358208955" y="-395.47761194"/>
      <point x="317" y="-391" type="qcurve"/>
      <point x="317" y="-338" type="line"/>
      <point x="499.089552239" y="-335.014925373"/>
      <point x="643.0" y="-277.268656716"/>
      <point x="643" y="-231" type="qcurve" smooth="yes"/>
      <point x="643.0" y="-204.134328358"/>
      <point x="603.567164179" y="-174.0"/>
      <point x="567" y="-174" type="qcurve" smooth="yes"/>
      <point x="534.910447761" y="-174.0"/>
      <point x="480.373134328" y="-186.313432836"/>
      <point x="455" y="-199" type="qcurve"/>
      <point x="403" y="-166" type="line"/>
      <point x="512" y="0" type="line"/>
      <point x="592" y="0" type="line"/>
      <point x="526" y="-106" type="line"/>
      <point x="546.149253731" y="-98.5373134328"/>
      <point x="593.895522388" y="-90.0"/>
    </contour>
  </outline>
</glyph>
<glyph name="ordmasculine" format="1">
  <advance width="786.432"/>
  <unicode hex="00BA"/>
  <outline>
    <contour>
      <point x="393" y="1489" type="qcurve" smooth="yes"/>
      <point x="527.328358209" y="1489.0"/>
      <point x="690.0" y="1284.41791045"/>
      <point x="690" y="1118" type="qcurve" smooth="yes"/>
      <point x="690.0" y="951.582089552"/>
      <point x="527.328358209" y="748.0"/>
      <point x="393" y="748" type="qcurve" smooth="yes"/>
      <point x="258.671641791" y="748.0"/>
      <point x="98.0" y="951.582089552"/>
      <point x="98" y="1118" type="qcurve" smooth="yes"/>
      <point x="98.0" y="1285.91044776"/>
      <point x="258.671641791" y="1489.0"/>
    </contour>
    <contour>
      <point x="393" y="840" type="qcurve" smooth="yes"/>
      <point x="472.850746269" y="840.0"/>
      <point x="557.0" y="987.641791045"/>
      <point x="557" y="1116" type="qcurve" smooth="yes"/>
      <point x="557.0" y="1247.34328358"/>
      <point x="472.850746269" y="1399.0"/>
      <point x="393" y="1399" type="qcurve" smooth="yes"/>
      <point x="315.388059701" y="1399.0"/>
      <point x="229.0" y="1249.85074627"/>
      <point x="229" y="1120" type="qcurve" smooth="yes"/>
      <point x="229.0" y="990.149253731"/>
      <point x="315.388059701" y="840.0"/>
    </contour>
    <contour>
      <point x="676" y="606" type="line"/>
      <point x="676" y="520" type="line"/>
      <point x="113" y="520" type="line"/>
      <point x="113" y="606" type="line"/>
    </contour>
  </outline>
</glyph>
<glyph name="questiondown" format="1">
  <advance width="933.888"/>
  <unicode hex="00BF"/>
  <outline>
    <contour>
      <point x="756" y="344" type="qcurve"/>
      <point x="895" y="281" type="line"/>
      <point x="835.298507463" y="136.970149254"/>
      <point x="632.910447761" y="-25.0"/>
      <point x="465" y="-25" type="qcurve" smooth="yes"/>
      <point x="287.388059701" y="-25.0"/>
      <point x="84.0" y="171.71641791"/>
      <point x="84" y="315" type="qcurve" smooth="yes"/>
      <point x="84.0" y="437.388059701"/>
      <point x="187.805970149" y="589.253731343"/>
      <point x="299" y="690" type="qcurve" smooth="yes"/>
      <point x="384.820895522" y="766.865671642"/>
      <point x="450.014925373" y="901.671641791"/>
      <point x="453" y="1036" type="qcurve"/>
      <point x="567" y="1036" type="line"/>
      <point x="576.701492537" y="862.119402985"/>
      <point x="515.253731343" y="691.28358209"/>
      <point x="416" y="598" type="qcurve" smooth="yes"/>
      <point x="339.134328358" y="526.358208955"/>
      <point x="268.0" y="400.119402985"/>
      <point x="268" y="324" type="qcurve" smooth="yes"/>
      <point x="268.0" y="235.194029851"/>
      <point x="376.731343284" y="119.0"/>
      <point x="473" y="119" type="qcurve" smooth="yes"/>
      <point x="575.23880597" y="119.0"/>
      <point x="702.268656716" y="226.089552239"/>
    </contour>
    <contour>
      <point x="512" y="1489" type="qcurve" smooth="yes"/>
      <point x="561.253731343" y="1489.0"/>
      <point x="627.0" y="1421.25373134"/>
      <point x="627" y="1372" type="qcurve" smooth="yes"/>
      <point x="627.0" y="1323.49253731"/>
      <point x="561.253731343" y="1257.0"/>
      <point x="512" y="1257" type="qcurve" smooth="yes"/>
      <point x="462.746268657" y="1257.0"/>
      <point x="395.0" y="1323.49253731"/>
      <point x="395" y="1372" type="qcurve" smooth="yes"/>
      <point x="395.0" y="1421.25373134"/>
      <point x="462.746268657" y="1489.0"/>
    </contour>
  </outline>
</glyph>
<glyph name="Aring" format="1">
  <advance width="1374.208"/>
  <unicode hex="00C5"/>
  <outline>
    <contour>
      <point x="688" y="1948" type="qcurve" smooth="yes"/>
      <point x="782.776119403" y="1948.0"/>
      <point x="899.0" y="1841.8358209"/>
      <point x="899" y="1759" type="qcurve" smooth="yes"/>
      <point x="899.0" y="1676.91044776"/>
      <point x="782.776119403" y="1569.0"/>
      <point x="688" y="1569" type="qcurve" smooth="yes"/>
      <point x="593.223880597" y="1569.0"/>
      <point x="477.0" y="1676.91044776"/>
      <point x="477" y="1759" type="qcurve" smooth="yes"/>
      <point x="477.0" y="1841.8358209"/>
      <point x="593.223880597" y="1948.0"/>
    </contour>
    <contour>
      <point x="688" y="1642" type="qcurve" smooth="yes"/>
      <point x="735.76119403" y="1642.0"/>
      <point x="799.0" y="1709.0"/>
      <point x="799" y="1759" type="qcurve" smooth="yes"/>
      <point x="799.0" y="1809.74626866"/>
      <point x="735.76119403" y="1876.0"/>
      <point x="688" y="1876" type="qcurve" smooth="yes"/>
      <point x="640.985074627" y="1876.0"/>
      <point x="578.0" y="1809.74626866"/>
      <point x="578" y="1759" type="qcurve" smooth="yes"/>
      <point x="578.0" y="1709.0"/>
      <point x="640.985074627" y="1642.0"/>
    </contour>
    <contour>
      <point x="815" y="1481" type="line"/>
      <point x="1323" y="0" type="line"/>
      <point x="1128" y="0" type="line"/>
      <point x="1004" y="379" type="line"/>
      <point x="365" y="379" type="line"/>
      <point x="240" y="0" type="line"/>
      <point x="51" y="0" type="line"/>
      <point x="559" y="1481" type="line"/>
    </contour>
    <contour>
      <point x="401" y="512" type="line"/>
      <point x="967" y="512" type="line"/>
      <point x="692" y="1335" type="line"/>
      <point x="676" y="1335" type="line"/>
    </contour>
  </outline>
</glyph>
<glyph name="Ccedilla" format="1">
  <advance width="1202.176"/>
  <unicode hex="00C7"/>
  <outline>
    <contour>
      <point x="954" y="475" type="qcurve"/>
      <point x="1128" y="430" type="line"/>
      <point x="1085.46268657" y="232.985074627"/>
      <point x="864.537313433" y="-11.8059701493"/>
      <point x="672" y="-23" type="qcurve"/>
      <point x="621" y="-106" type="line"/>
      <point x="641.895522388" y="-98.5373134328"/>
      <point x="689.388059701" y="-90.0"/>
      <point x="717" y="-90" type="qcurve" smooth="yes"/>
      <point x="785.656716418" y="-90.0"/>
      <point x="870.0" y="-148.791044776"/>
      <point x="870" y="-207" type="qcurve" smooth="yes"/>
      <point x="870.0" y="-303.268656716"/>
      <point x="639.611940299" y="-395.47761194"/>
      <point x="412" y="-391" type="qcurve"/>
      <point x="412" y="-338" type="line"/>
      <point x="593.343283582" y="-335.014925373"/>
      <point x="739.0" y="-277.268656716"/>
      <point x="739" y="-231" type="qcurve" smooth="yes"/>
      <point x="739.0" y="-204.134328358"/>
      <point x="698.567164179" y="-174.0"/>
      <point x="662" y="-174" type="qcurve" smooth="yes"/>
      <point x="631.402985075" y="-174.0"/>
      <point x="576.611940299" y="-186.313432836"/>
      <point x="549" y="-199" type="qcurve"/>
      <point x="498" y="-166" type="line"/>
      <point x="594" y="-23" type="line"/>
      <point x="364.895522388" y="-4.34328358209"/>
      <point x="100.0" y="386.880597015"/>
      <point x="100" y="713" type="qcurve" smooth="yes"/>
      <point x="100" y="758" type="line" smooth="yes"/>
      <point x="100.0" y="1100.53731343"/>
      <point x="389.746268657" y="1499.0"/>
      <point x="639" y="1499" type="qcurve" smooth="yes"/>
      <point x="844.970149254" y="1499.0"/>
      <point x="1078.95522388" y="1261.02985075"/>
      <point x="1120" y="1067" type="qcurve"/>
      <point x="942" y="1020" type="line"/>
      <point x="905.432835821" y="1181.94029851"/>
      <point x="761.388059701" y="1352.0"/>
      <point x="639" y="1352" type="qcurve" smooth="yes"/>
      <point x="465.119402985" y="1352.0"/>
      <point x="297.0" y="1027.25373134"/>
      <point x="297" y="778" type="qcurve" smooth="yes"/>
      <point x="297" y="700" type="line" smooth="yes"/>
      <point x="297.0" y="450.0"/>
      <point x="465.626865672" y="123.0"/>
      <point x="641" y="123" type="qcurve" smooth="yes"/>
      <point x="770.850746269" y="123.0"/>
      <point x="918.925373134" y="311.567164179"/>
    </contour>
  </outline>
</glyph>
<glyph name="Oslash" format="1">
  <advance width="1277.952"/>
  <unicode hex="00D8"/>
  <outline>
    <contour>
      <point x="1178" y="762" type="qcurve" smooth="yes"/>
      <point x="1178" y="717" type="line" smooth="yes"/>
      <point x="1178.0" y="374.462686567"/>
      <point x="889.746268657" y="-25.0"/>
      <point x="639" y="-25" type="qcurve" smooth="yes"/>
      <point x="557.656716418" y="-25.0"/>
      <point x="414.208955224" y="21.223880597"/>
      <point x="356" y="66" type="qcurve"/>
      <point x="225" y="-195" type="line"/>
      <point x="100" y="-195" type="line"/>
      <point x="272" y="135" type="line"/>
      <point x="188.417910448" y="228.28358209"/>
      <point x="100.0" y="524.940298507"/>
      <point x="100" y="713" type="qcurve" smooth="yes"/>
      <point x="100" y="758" type="line" smooth="yes"/>
      <point x="100.0" y="1100.53731343"/>
      <point x="389.746268657" y="1499.0"/>
      <point x="639" y="1499" type="qcurve" smooth="yes"/>
      <point x="720.343283582" y="1499.0"/>
      <point x="863.28358209" y="1453.02985075"/>
      <point x="920" y="1409" type="qcurve"/>
      <point x="1053" y="1673" type="line"/>
      <point x="1178" y="1673" type="line"/>
      <point x="1004" y="1341" type="line"/>
      <point x="1086.08955224" y="1246.2238806"/>
      <point x="1178.0" y="951.552238806"/>
    </contour>
    <contour>
      <point x="639" y="117" type="qcurve" smooth="yes"/>
      <point x="812.880597015" y="117.0"/>
      <point x="989.0" y="437.791044776"/>
      <point x="989" y="696" type="qcurve" smooth="yes"/>
      <point x="989" y="774" type="line" smooth="yes"/>
      <point x="989.0" y="890.417910448"/>
      <point x="948.28358209" y="1096.85074627"/>
      <point x="905" y="1167" type="qcurve"/>
      <point x="426" y="209" type="line"/>
      <point x="467.044776119" y="164.970149254"/>
      <point x="573.328358209" y="117.0"/>
    </contour>
    <contour>
      <point x="373" y="309" type="qcurve"/>
      <point x="850" y="1266" type="line"/>
      <point x="808.955223881" y="1310.02985075"/>
      <point x="703.179104478" y="1358.0"/>
      <point x="639" y="1358" type="qcurve" smooth="yes"/>
      <point x="465.119402985" y="1358.0"/>
      <point x="289.0" y="1034.71641791"/>
      <point x="289" y="778" type="qcurve" smooth="yes"/>
      <point x="289" y="700" type="line" smooth="yes"/>
      <point x="289.0" y="584.328358209"/>
      <point x="328.223880597" y="379.149253731"/>
    </contour>
  </outline>
</glyph>
<glyph name="Thorn" format="1">
  <advance width="1179.648"/>
  <unicode hex="00DE"/>
  <outline>
    <contour>
      <point x="612" y="1190" type="line" smooth="yes"/>
      <point x="843.343283582" y="1190.0"/>
      <point x="1108.0" y="971.462686567"/>
      <point x="1108" y="764" type="qcurve" smooth="yes"/>
      <point x="1108.0" y="551.313432836"/>
      <point x="843.28358209" y="326.0"/>
      <point x="600" y="326" type="qcurve" smooth="yes"/>
      <point x="350" y="326" type="line"/>
      <point x="350" y="0" type="line"/>
      <point x="160" y="0" type="line"/>
      <point x="160" y="1475" type="line"/>
      <point x="350" y="1475" type="line"/>
      <point x="350" y="1190" type="line"/>
    </contour>
    <contour>
      <point x="600" y="469" type="line" smooth="yes"/>
      <point x="751.492537313" y="469.0"/>
      <point x="918.0" y="615.970149254"/>
      <point x="918" y="760" type="qcurve" smooth="yes"/>
      <point x="918.0" y="898.805970149"/>
      <point x="752.955223881" y="1049.0"/>
      <point x="594" y="1049" type="qcurve" smooth="yes"/>
      <point x="344" y="1049" type="line"/>
      <point x="344" y="469" type="line"/>
    </contour>
  </outline>
</glyph>
<glyph name="germandbls" format="1">
  <advance width="1198.08"/>
  <unicode hex="00DF"/>
  <outline>
    <contour>
      <point x="739" y="844" type="line"/>
      <point x="886.014925373" y="804.447761194"/>
      <point x="1120.0" y="578.014925373"/>
      <point x="1120" y="381" type="qcurve" smooth="yes"/>
      <point x="1120.0" y="195.925373134"/>
      <point x="904.134328358" y="-16.0"/>
      <point x="731" y="-16" type="qcurve" smooth="yes"/>
      <point x="636.223880597" y="-16.0"/>
      <point x="510.52238806" y="30.6865671642"/>
      <point x="465" y="68" type="qcurve"/>
      <point x="508" y="180" type="line"/>
      <point x="549.044776119" y="144.925373134"/>
      <point x="638.104477612" y="106.0"/>
      <point x="709" y="106" type="qcurve" smooth="yes"/>
      <point x="806.76119403" y="106.0"/>
      <point x="944.0" y="249.149253731"/>
      <point x="944" y="379" type="qcurve" smooth="yes"/>
      <point x="944.0" y="552.880597015"/>
      <point x="710.985074627" y="763.611940299"/>
      <point x="508" y="786" type="qcurve"/>
      <point x="508" y="901" type="line"/>
      <point x="662.47761194" y="908.462686567"/>
      <point x="815.0" y="1074.56716418"/>
      <point x="815" y="1188" type="qcurve" smooth="yes"/>
      <point x="815.0" y="1291.73134328"/>
      <point x="686.402985075" y="1430.0"/>
      <point x="567" y="1430" type="qcurve" smooth="yes"/>
      <point x="444.611940299" y="1430.0"/>
      <point x="311.0" y="1264.50746269"/>
      <point x="311" y="1116" type="qcurve" smooth="yes"/>
      <point x="311" y="0" type="line"/>
      <point x="133" y="0" type="line"/>
      <point x="133" y="1096" type="line" smooth="yes"/>
      <point x="133.0" y="1312.41791045"/>
      <point x="370.014925373" y="1554.0"/>
      <point x="573" y="1554" type="qcurve" smooth="yes"/>
      <point x="770.76119403" y="1554.0"/>
      <point x="989.0" y="1351.49253731"/>
      <point x="989" y="1200" type="qcurve" smooth="yes"/>
      <point x="989.0" y="1065.67164179"/>
      <point x="844.970149254" y="894.567164179"/>
      <point x="739" y="858" type="qcurve"/>
    </contour>
  </outline>
</glyph>
<glyph name="eth" format="1">
  <advance width="1030.144"/>
  <unicode hex="00F0"/>
  <outline>
    <contour>
      <point x="944" y="594" type="qcurve" smooth="yes"/>
      <point x="944" y="553" type="line" smooth="yes"/>
      <point x="944.0" y="288.820895522"/>
      <point x="714.0" y="-20.0"/>
      <point x="514" y="-20" type="qcurve" smooth="yes"/>
      <point x="314.0" y="-20.0"/>
      <point x="80.0" y="278.955223881"/>
      <point x="80" y="520" type="qcurve" smooth="yes"/>
      <point x="80" y="543" type="line" smooth="yes"/>
      <point x="80.0" y="784.044776119"/>
      <point x="294.910447761" y="1081.0"/>
      <point x="477" y="1081" type="qcurve" smooth="yes"/>
      <point x="584.462686567" y="1081.0"/>
      <point x="730.47761194" y="951.76119403"/>
      <point x="776" y="854" type="qcurve"/>
      <point x="788" y="854" type="line"/>
      <point x="773.074626866" y="989.820895522"/>
      <point x="654.850746269" y="1227.74626866"/>
      <point x="575" y="1327" type="qcurve"/>
      <point x="338" y="1200" type="line"/>
      <point x="338" y="1292" type="line"/>
      <point x="516" y="1389" type="line"/>
      <point x="485.402985075" y="1422.58208955"/>
      <point x="420.074626866" y="1484.13432836"/>
      <point x="385" y="1511" type="qcurve"/>
      <point x="532" y="1561" type="line"/>
      <point x="559.611940299" y="1534.88059701"/>
      <point x="616.880597015" y="1476.59701493"/>
      <point x="643" y="1446" type="qcurve"/>
      <point x="866" y="1561" type="line"/>
      <point x="866" y="1468" type="line"/>
      <point x="700" y="1378" type="line"/>
      <point x="802.985074627" y="1246.65671642"/>
      <point x="944.0" y="870.865671642"/>
    </contour>
    <contour>
      <point x="514" y="96" type="qcurve" smooth="yes"/>
      <point x="636.388059701" y="96.0"/>
      <point x="768.0" y="324.47761194"/>
      <point x="768" y="520" type="qcurve" smooth="yes"/>
      <point x="768" y="543" type="line" smooth="yes"/>
      <point x="768.0" y="741.507462687"/>
      <point x="636.388059701" y="969.0"/>
      <point x="514" y="969" type="qcurve" smooth="yes"/>
      <point x="390.119402985" y="969.0"/>
      <point x="258.0" y="742.52238806"/>
      <point x="258" y="547" type="qcurve" smooth="yes"/>
      <point x="258" y="522" type="line" smooth="yes"/>
      <point x="258.0" y="324.985074627"/>
      <point x="390.119402985" y="96.0"/>
    </contour>
  </outline>
</glyph>
<glyph name="oslash" format="1">
  <advance width="1026.048"/>
  <unicode hex="00F8"/>
  <outline>
    <contour>
      <point x="193" y="-195" type="line"/>
      <point x="80" y="-195" type="line"/>
      <point x="229" y="88" type="line"/>
      <point x="157.358208955" y="159.641791045"/>
      <point x="80.0" y="381.194029851"/>
      <point x="80" y="520" type="qcurve" smooth="yes"/>
      <point x="80" y="543" type="line" smooth="yes"/>
      <point x="80.0" y="784.044776119"/>
      <point x="314.0" y="1087.0"/>
      <point x="514" y="1087" type="qcurve" smooth="yes"/>
      <point x="570.71641791" y="1087.0"/>
      <point x="674.223880597" y="1057.6119403"/>
      <point x="719" y="1030" type="qcurve"/>
      <point x="834" y="1262" type="line"/>
      <point x="944" y="1262" type="line"/>
      <point x="795" y="977" type="line"/>
      <point x="868.134328358" y="906.850746269"/>
      <point x="944.0" y="684.313432836"/>
      <point x="944" y="547" type="qcurve" smooth="yes"/>
      <point x="944" y="524" type="line" smooth="yes"/>
      <point x="944.0" y="282.955223881"/>
      <point x="712.507462687" y="-20.0"/>
      <point x="514" y="-20" type="qcurve" smooth="yes"/>
      <point x="454.298507463" y="-20.0"/>
      <point x="353.776119403" y="8.88059701493"/>
      <point x="309" y="35" type="qcurve"/>
    </contour>
    <contour>
      <point x="362" y="150" type="line"/>
      <point x="392.597014925" y="120.895522388"/>
      <point x="469.970149254" y="90.0"/>
      <point x="514" y="90" type="qcurve" smooth="yes"/>
      <point x="636.388059701" y="90.0"/>
      <point x="778.0" y="318.507462687"/>
      <point x="778" y="520" type="qcurve" smooth="yes"/>
      <point x="778" y="543" type="line" smooth="yes"/>
      <point x="778.0" y="631.805970149"/>
      <point x="742.582089552" y="783.76119403"/>
      <point x="709" y="836" type="qcurve"/>
    </contour>
    <contour>
      <point x="248" y="522" type="line" smooth="yes"/>
      <point x="248.0" y="435.432835821"/>
      <point x="281.417910448" y="280.731343284"/>
      <point x="315" y="227" type="qcurve"/>
      <point x="662" y="915" type="line"/>
      <point x="632.895522388" y="944.104477612"/>
      <point x="556.537313433" y="975.0"/>
      <point x="514" y="975" type="qcurve" smooth="yes"/>
      <point x="388.626865672" y="975.0"/>
      <point x="248.0" y="747.0"/>
      <point x="248" y="547" type="qcurve" smooth="yes"/>
    </contour>
  </outline>
</glyph>
<glyph name="dotlessi" format="1">
  <advance width="477.184"/>
  <unicode hex="0131"/>
  <outline>
    <contour>
      <point x="328" y="1067" type="line"/>
      <point x="328" y="0" type="line"/>
      <point x="150" y="0" type="line"/>
      <point x="150" y="1067" type="line"/>
    </contour>
  </outline>
</glyph>
<glyph name="Lslash" format="1">
  <advance width="1128.448"/>
  <unicode hex="0141"/>
  <outline>
    <contour>
      <point x="1092" y="158" type="line"/>
      <point x="1092" y="0" type="line"/>
      <point x="233" y="0" type="line"/>
      <point x="233" y="649" type="line"/>
      <point x="53" y="567" type="line"/>
      <point x="53" y="725" type="line"/>
      <point x="233" y="807" type="line"/>
      <point x="233" y="1475" type="line"/>
      <point x="422" y="1475" type="line"/>
      <point x="422" y="885" type="line"/>
      <point x="715" y="1020" type="line"/>
      <point x="715" y="860" type="line"/>
      <point x="422" y="725" type="line"/>
      <point x="422" y="158" type="line"/>
    </contour>
  </outline>
</glyph>
<glyph name="florin" format="1">
  <advance width="940.032"/>
  <unicode hex="0192"/>
  <outline>
    <contour>
      <point x="700" y="1487" type="qcurve" smooth="yes"/>
      <point x="764.179104478" y="1487.0"/>
      <point x="870.462686567" y="1470.68656716"/>
      <point x="913" y="1458" type="qcurve"/>
      <point x="889" y="1327" type="line"/>
      <point x="847.955223881" y="1341.17910448"/>
      <point x="771.0" y="1352.0"/>
      <point x="721" y="1352" type="qcurve" smooth="yes"/>
      <point x="655.328358209" y="1352.0"/>
      <point x="564.432835821" y="1272.59701493"/>
      <point x="551" y="1192" type="qcurve" smooth="yes"/>
      <point x="508" y="946" type="line"/>
      <point x="768" y="946" type="line"/>
      <point x="745" y="815" type="line"/>
      <point x="485" y="815" type="line"/>
      <point x="317" y="-139" type="line" smooth="yes"/>
      <point x="293.119402985" y="-278.552238806"/>
      <point x="137.686567164" y="-389.0"/>
      <point x="25" y="-389" type="qcurve" smooth="yes"/>
      <point x="-22.7611940299" y="-389.0"/>
      <point x="-106.402985075" y="-376.462686567"/>
      <point x="-137" y="-369" type="qcurve"/>
      <point x="-115" y="-242" type="line"/>
      <point x="-87.3880597015" y="-247.970149254"/>
      <point x="-28.5970149254" y="-258.0"/>
      <point x="2" y="-258" type="qcurve" smooth="yes"/>
      <point x="54.2388059701" y="-258.0"/>
      <point x="129.059701493" y="-193.149253731"/>
      <point x="141" y="-123" type="qcurve" smooth="yes"/>
      <point x="307" y="815" type="line"/>
      <point x="100" y="815" type="line"/>
      <point x="121" y="946" type="line"/>
      <point x="330" y="946" type="line"/>
      <point x="375" y="1204" type="line" smooth="yes"/>
      <point x="401.119402985" y="1354.0"/>
      <point x="570.149253731" y="1487.0"/>
    </contour>
  </outline>
</glyph>
<glyph name="breve" format="1">
  <advance width="1024.0"/>
  <unicode hex="02D8"/>
  <outline>
    <contour>
      <point x="729" y="1540" type="qcurve"/>
      <point x="821" y="1540" type="line"/>
      <point x="813.537313433" y="1384.02985075"/>
      <point x="657.52238806" y="1206.0"/>
      <point x="512" y="1206" type="qcurve" smooth="yes"/>
      <point x="366.47761194" y="1206.0"/>
      <point x="210.462686567" y="1384.02985075"/>
      <point x="203" y="1540" type="qcurve"/>
      <point x="295" y="1540" type="line"/>
      <point x="308.432835821" y="1433.28358209"/>
      <point x="415.731343284" y="1327.0"/>
      <point x="512" y="1327" type="qcurve" smooth="yes"/>
      <point x="608.268656716" y="1327.0"/>
      <point x="715.567164179" y="1433.28358209"/>
    </contour>
  </outline>
</glyph>
<glyph name="ogonek" format="1">
  <advance width="1024.0"/>
  <unicode hex="02DB"/>
  <outline>
    <contour>
      <point x="745" y="-262" type="qcurve"/>
      <point x="770" y="-319" type="line"/>
      <point x="707.313432836" y="-353.328358209"/>
      <point x="579.164179104" y="-389.0"/>
      <point x="512" y="-389" type="qcurve" smooth="yes"/>
      <point x="417.223880597" y="-389.0"/>
      <point x="305.0" y="-307.641791045"/>
      <point x="305" y="-236" type="qcurve" smooth="yes"/>
      <point x="305.0" y="-168.089552239"/>
      <point x="412.179104478" y="-47.0149253731"/>
      <point x="498" y="0" type="qcurve"/>
      <point x="590" y="0" type="line"/>
      <point x="514.626865672" y="-53.7313432836"/>
      <point x="442.0" y="-160.253731343"/>
      <point x="442" y="-211" type="qcurve" smooth="yes"/>
      <point x="442.0" y="-252.044776119"/>
      <point x="501.746268657" y="-303.0"/>
      <point x="551" y="-303" type="qcurve" smooth="yes"/>
      <point x="599.507462687" y="-303.0"/>
      <point x="692.014925373" y="-282.149253731"/>
    </contour>
  </outline>
</glyph>
<glyph name="tilde" format="1">
  <advance width="1024.0"/>
  <unicode hex="02DC"/>
  <outline>
    <contour>
      <point x="739" y="1454" type="qcurve"/>
      <point x="836" y="1454" type="line"/>
      <point x="838.985074627" y="1330.11940299"/>
      <point x="754.059701493" y="1212.0"/>
      <point x="666" y="1212" type="qcurve" smooth="yes"/>
      <point x="578.686567164" y="1212.0"/>
      <point x="424.462686567" y="1325.0"/>
      <point x="367" y="1325" type="qcurve" smooth="yes"/>
      <point x="325.208955224" y="1325.0"/>
      <point x="286.492537313" y="1274.46268657"/>
      <point x="285" y="1217" type="qcurve"/>
      <point x="188" y="1217" type="line"/>
      <point x="185.014925373" y="1340.13432836"/>
      <point x="269.940298507" y="1458.0"/>
      <point x="358" y="1458" type="qcurve" smooth="yes"/>
      <point x="445.313432836" y="1458.0"/>
      <point x="599.537313433" y="1346.0"/>
      <point x="657" y="1346" type="qcurve" smooth="yes"/>
      <point x="698.791044776" y="1346.0"/>
      <point x="737.507462687" y="1395.79104478"/>
    </contour>
  </outline>
</glyph>
<glyph name="hungarumlaut" format="1">
  <advance width="1024.0"/>
  <unicode hex="02DD"/>
  <outline>
    <contour>
      <point x="313" y="1522" type="line"/>
      <point x="532" y="1522" type="line"/>
      <point x="244" y="1212" type="line"/>
      <point x="133" y="1212" type="line"/>
    </contour>
    <contour>
      <point x="686" y="1522" type="line"/>
      <point x="905" y="1522" type="line"/>
      <point x="618" y="1212" type="line"/>
      <point x="506" y="1212" type="line"/>
    </contour>
  </outline>
</glyph>
<glyph name="emdash" format="1">
  <advance width="2048.0"/>
  <unicode hex="2014"/>
  <outline>
    <contour>
      <point x="1968" y="655" type="line"/>
      <point x="1968" y="502" type="line"/>
      <point x="80" y="502" type="line"/>
      <point x="80" y="655" type="line"/>
    </contour>
  </outline>
</glyph>
<glyph name="uni2117" format="1">
  <advance width="1701.888"/>
  <unicode hex="2117"/>
  <outline>
    <contour>
      <point x="852" y="1499" type="qcurve" smooth="yes"/>
      <point x="1174.3880597" y="1499.0"/>
      <point x="1614.0" y="1060.88059701"/>
      <point x="1614" y="737" type="qcurve" smooth="yes"/>
      <point x="1614.0" y="414.611940299"/>
      <point x="1172.3880597" y="-25.0"/>
      <point x="850" y="-25" type="qcurve" smooth="yes"/>
      <point x="527.611940299" y="-25.0"/>
      <point x="90.0" y="413.119402985"/>
      <point x="90" y="737" type="qcurve" smooth="yes"/>
      <point x="90.0" y="1059.3880597"/>
      <point x="529.611940299" y="1499.0"/>
    </contour>
    <contour>
      <point x="852" y="45" type="qcurve" smooth="yes"/>
      <point x="1146.7761194" y="45.0"/>
      <point x="1534.0" y="442.223880597"/>
      <point x="1534" y="737" type="qcurve" smooth="yes"/>
      <point x="1534.0" y="1030.28358209"/>
      <point x="1144.7761194" y="1430.0"/>
      <point x="850" y="1430" type="qcurve" smooth="yes"/>
      <point x="556.71641791" y="1430.0"/>
      <point x="168.0" y="1032.52238806"/>
      <point x="168" y="737" type="qcurve" smooth="yes"/>
      <point x="168.0" y="443.71641791"/>
      <point x="557.223880597" y="45.0"/>
    </contour>
    <contour>
      <point x="891" y="1161" type="line" smooth="yes"/>
      <point x="1026.82089552" y="1161.0"/>
      <point x="1184.0" y="1032.40298507"/>
      <point x="1184" y="913" type="qcurve" smooth="yes"/>
      <point x="1184.0" y="791.358208955"/>
      <point x="1027.7761194" y="657.0"/>
      <point x="883" y="657" type="qcurve" smooth="yes"/>
      <point x="760" y="657" type="line"/>
      <point x="760" y="322" type="line"/>
      <point x="623" y="322" type="line"/>
      <point x="623" y="1161" type="line"/>
    </contour>
    <contour>
      <point x="883" y="764" type="line" smooth="yes"/>
      <point x="962.104477612" y="764.0"/>
      <point x="1049.0" y="839.358208955"/>
      <point x="1049" y="911" type="qcurve" smooth="yes"/>
      <point x="1049.0" y="978.164179104"/>
      <point x="962.582089552" y="1055.0"/>
      <point x="879" y="1055" type="qcurve" smooth="yes"/>
      <point x="756" y="1055" type="line"/>
      <point x="756" y="764" type="line"/>
    </contour>
  </outline>
</glyph>
<glyph name="apple" format="1">
  <advance width="1024.0"/>
  <unicode hex="F8FF"/>
  <outline>
    <contour>
      <point x="573" y="440" type="line"/>
      <point x="952" y="373" type="line"/>
      <point x="893" y="205" type="line"/>
      <point x="547" y="377" type="line"/>
      <point x="602" y="0" type="line"/>
      <point x="422" y="0" type="line"/>
      <point x="477" y="377" type="line"/>
      <point x="131" y="205" type="line"/>
      <point x="72" y="373" type="line"/>
      <point x="451" y="440" type="line"/>
      <point x="168" y="731" type="line"/>
      <point x="168" y="743" type="line"/>
      <point x="451" y="1034" type="line"/>
      <point x="72" y="1102" type="line"/>
      <point x="131" y="1270" type="line"/>
      <point x="477" y="1098" type="line"/>
      <point x="422" y="1475" type="line"/>
      <point x="602" y="1475" type="line"/>
      <point x="547" y="1098" type="line"/>
      <point x="893" y="1270" type="line"/>
      <point x="952" y="1102" type="line"/>
      <point x="573" y="1034" type="line"/>
      <point x="856" y="743" type="line"/>
      <point x="856" y="731" type="line"/>
    </contour>
    <contour>
      <point x="512" y="465" type="line"/>
      <point x="684" y="737" type="line"/>
      <point x="512" y="1010" type="line"/>
      <point x="340" y="737" type="line"/>
    </contour>
  </outline>
</glyph>
<glyph name="f_f" format="1">
  <advance width="1302.528"/>
  <unicode hex="FB00"/>
  <outline>
    <contour>
      <point x="1327" y="1530" type="qcurve"/>
      <point x="1327" y="1395" type="line"/>
      <point x="1294.91044776" y="1409.92537313"/>
      <point x="1217.23880597" y="1430.0"/>
      <point x="1165" y="1430" type="qcurve" smooth="yes"/>
      <point x="1096.34328358" y="1430.0"/>
      <point x="1022.0" y="1347.07462687"/>
      <point x="1022" y="1262" type="qcurve" smooth="yes"/>
      <point x="1022" y="1059" type="line"/>
      <point x="1286" y="1059" type="line"/>
      <point x="1286" y="932" type="line"/>
      <point x="1022" y="932" type="line"/>
      <point x="1022" y="0" type="line"/>
      <point x="846" y="0" type="line"/>
      <point x="846" y="932" type="line"/>
      <point x="418" y="932" type="line"/>
      <point x="418" y="0" type="line"/>
      <point x="240" y="0" type="line"/>
      <point x="240" y="932" type="line"/>
      <point x="33" y="932" type="line"/>
      <point x="33" y="1059" type="line"/>
      <point x="240" y="1059" type="line"/>
      <point x="240" y="1255" type="line" smooth="yes"/>
      <point x="240.0" y="1403.50746269"/>
      <point x="396.179104478" y="1554.0"/>
      <point x="532" y="1554" type="qcurve" smooth="yes"/>
      <point x="596.179104478" y="1554.0"/>
      <point x="684.432835821" y="1540.44776119"/>
      <point x="721" y="1530" type="qcurve"/>
      <point x="721" y="1395" type="line"/>
      <point x="688.910447761" y="1409.92537313"/>
      <point x="612.731343284" y="1430.0"/>
      <point x="559" y="1430" type="qcurve" smooth="yes"/>
      <point x="490.343283582" y="1430.0"/>
      <point x="418.0" y="1347.07462687"/>
      <point x="418" y="1262" type="qcurve" smooth="yes"/>
      <point x="418" y="1059" type="line"/>
      <point x="846" y="1059" type="line"/>
      <point x="846" y="1255" type="line" smooth="yes"/>
      <point x="846.0" y="1403.50746269"/>
      <point x="1001.92537313" y="1554.0"/>
      <point x="1137" y="1554" type="qcurve" smooth="yes"/>
      <point x="1202.67164179" y="1554.0"/>
      <point x="1288.94029851" y="1540.44776119"/>
    </contour>
  </outline>
</glyph>
<glyph name="fi" format="1">
  <advance width="1175.552"/>
  <unicode hex="FB01"/>
  <outline>
    <contour>
      <point x="721" y="1530" type="qcurve"/>
      <point x="721" y="1395" type="line"/>
      <point x="688.910447761" y="1409.92537313"/>
      <point x="612.731343284" y="1430.0"/>
      <point x="559" y="1430" type="qcurve" smooth="yes"/>
      <point x="490.343283582" y="1430.0"/>
      <point x="418.0" y="1347.07462687"/>
      <point x="418" y="1262" type="qcurve" smooth="yes"/>
      <point x="418" y="1059" type="line"/>
      <point x="680" y="1059" type="line"/>
      <point x="680" y="932" type="line"/>
      <point x="418" y="932" type="line"/>
      <point x="418" y="0" type="line"/>
      <point x="240" y="0" type="line"/>
      <point x="240" y="932" type="line"/>
      <point x="33" y="932" type="line"/>
      <point x="33" y="1059" type="line"/>
      <point x="240" y="1059" type="line"/>
      <point x="240" y="1255" type="line" smooth="yes"/>
      <point x="240.0" y="1403.50746269"/>
      <point x="396.179104478" y="1554.0"/>
      <point x="532" y="1554" type="qcurve" smooth="yes"/>
      <point x="596.179104478" y="1554.0"/>
      <point x="684.432835821" y="1540.44776119"/>
    </contour>
    <contour>
      <point x="1024" y="1067" type="line"/>
      <point x="1024" y="0" type="line"/>
      <point x="846" y="0" type="line"/>
      <point x="846" y="1067" type="line"/>
    </contour>
    <contour>
      <point x="1038" y="1481" type="line"/>
      <point x="1038" y="1290" type="line"/>
      <point x="831" y="1290" type="line"/>
      <point x="831" y="1481" type="line"/>
    </contour>
  </outline>
</glyph>
<glyph name="bullet" format="1">
  <advance width="772.096"/>
  <outline>
    <contour>
      <point x="387" y="1042" type="qcurve" smooth="yes"/>
      <point x="503.417910448" y="1042.0"/>
      <point x="664.0" y="880.417910448"/>
      <point x="664" y="764" type="qcurve" smooth="yes"/>
      <point x="664.0" y="647.582089552"/>
      <point x="503.417910448" y="485.0"/>
      <point x="387" y="485" type="qcurve" smooth="yes"/>
      <point x="270.582089552" y="485.0"/>
      <point x="109.0" y="647.582089552"/>
      <point x="109" y="764" type="qcurve" smooth="yes"/>
      <point x="109.0" y="880.417910448"/>
      <point x="270.582089552" y="1042.0"/>
    </contour>
  </outline>
</glyph>
<glyph name="macron" format="1">
  <advance width="1024.0"/>
  <outline>
    <contour>
      <point x="803" y="1415" type="line"/>
      <point x="803" y="1288" type="line"/>
      <point x="221" y="1288" type="line"/>
      <point x="221" y="1415" type="line"/>
    </contour>
  </outline>
</glyph>
<glyph name="registered" format="1">
  <advance width="1071.104"/>
  <outline>
    <contour>
      <point x="612" y="1004" type="qcurve"/>
      <point x="756" y="780" type="line"/>
      <point x="651" y="780" type="line"/>
      <point x="516" y="993" type="line"/>
      <point x="467" y="993" type="line"/>
      <point x="467" y="780" type="line"/>
      <point x="371" y="780" type="line"/>
      <point x="371" y="1296" type="line"/>
      <point x="547" y="1296" type="line" smooth="yes"/>
      <point x="629.089552239" y="1296.0"/>
      <point x="729.0" y="1219.62686567"/>
      <point x="729" y="1145" type="qcurve" smooth="yes"/>
      <point x="729.0" y="1089.7761194"/>
      <point x="665.731343284" y="1017.43283582"/>
    </contour>
    <contour>
      <point x="537" y="1489" type="qcurve" smooth="yes"/>
      <point x="729.537313433" y="1489.0"/>
      <point x="993.0" y="1226.02985075"/>
      <point x="993" y="1032" type="qcurve" smooth="yes"/>
      <point x="993.0" y="837.970149254"/>
      <point x="729.029850746" y="575.0"/>
      <point x="535" y="575" type="qcurve" smooth="yes"/>
      <point x="341.71641791" y="575.0"/>
      <point x="80.0" y="836.47761194"/>
      <point x="80" y="1032" type="qcurve" smooth="yes"/>
      <point x="80.0" y="1224.53731343"/>
      <point x="342.223880597" y="1489.0"/>
    </contour>
    <contour>
      <point x="537" y="623" type="qcurve" smooth="yes"/>
      <point x="709.388059701" y="623.0"/>
      <point x="938.0" y="858.119402985"/>
      <point x="938" y="1032" type="qcurve" smooth="yes"/>
      <point x="938.0" y="1205.13432836"/>
      <point x="708.880597015" y="1440.0"/>
      <point x="535" y="1440" type="qcurve" smooth="yes"/>
      <point x="361.865671642" y="1440.0"/>
      <point x="131.0" y="1206.62686567"/>
      <point x="131" y="1032" type="qcurve" smooth="yes"/>
      <point x="131.0" y="858.119402985"/>
      <point x="362.373134328" y="623.0"/>
    </contour>
    <contour>
      <point x="541" y="1065" type="line" smooth="yes"/>
      <point x="586.52238806" y="1065.0"/>
      <point x="637.0" y="1105.44776119"/>
      <point x="637" y="1145" type="qcurve" smooth="yes"/>
      <point x="637.0" y="1183.05970149"/>
      <point x="586.52238806" y="1225.0"/>
      <point x="541" y="1225" type="qcurve" smooth="yes"/>
      <point x="463" y="1225" type="line"/>
      <point x="463" y="1065" type="line"/>
    </contour>
  </outline>
</glyph>
